<svg width="24.000000000000004" height="24.000000000000004" xmlns="http://www.w3.org/2000/svg" fill="none">

 <g>
  <title>Layer 1</title>
  <path transform="rotate(45 8.61401 12.2939)" id="svg_1" fill="#1C274C" d="m15.25771,3.42473c-1.17,0.20813 -2.7473,0.73179 -4.961,1.46968l-5.01129,1.67043c-1.78002,0.59334 -3.06931,1.02374 -3.97995,1.41106c-0.95207,0.40493 -1.29075,0.68719 -1.40075,0.8764c-0.3388,0.58278 -0.3388,1.3026 0,1.8853c0.11,0.1892 0.44868,0.4715 1.40075,0.8764c0.91064,0.3874 2.19993,0.8178 3.97995,1.4111c0.02811,0.0094 0.05586,0.0186 0.08327,0.0277c0.37963,0.1263 0.69327,0.2306 0.9673,0.3739l5.32342,-5.26469c0.3017,-0.29837 0.7881,-0.29568 1.0865,0.00602c0.2984,0.3017 0.2957,0.78816 -0.006,1.08654l-5.3,5.24153c0.1653,0.2918 0.2771,0.628 0.4152,1.0431c0.0091,0.0274 0.0183,0.0552 0.0277,0.0833c0.5933,1.78 1.0237,3.0693 1.4111,3.9799c0.4049,0.9521 0.6871,1.2908 0.8764,1.4008c0.5827,0.3388 1.3025,0.3388 1.8853,0c0.1892,-0.11 0.4715,-0.4487 0.8764,-1.4008c0.3873,-0.9106 0.8177,-2.1999 1.4111,-3.9799l1.6704,-5.0113c0.7379,-2.21367 1.2615,-3.79103 1.4697,-4.96101c0.2091,-1.17555 0.0493,-1.67489 -0.2507,-1.97483c-0.2999,-0.29994 -0.7992,-0.45975 -1.9748,-0.25063zm-0.2691,-1.51286c1.3022,-0.23165 2.475,-0.17856 3.3305,0.67694c0.8555,0.8555 0.9086,2.02831 0.6769,3.33051c-0.2302,1.29433 -0.7917,2.97873 -1.5026,5.11128l-1.7049,5.1148c-0.5785,1.7354 -1.028,3.0839 -1.4425,4.0585c-0.3998,0.94 -0.8438,1.7357 -1.5181,2.1277c-1.0602,0.6164 -2.3697,0.6164 -3.4299,0c-0.6744,-0.392 -1.1183,-1.1877 -1.5182,-2.1277c-0.4145,-0.9746 -0.86396,-2.3231 -1.44242,-4.0585l-0.01233,-0.037c-0.20267,-0.608 -0.26444,-0.7729 -0.35196,-0.9036c-0.09795,-0.1463 -0.22364,-0.272 -0.36996,-0.37c-0.13073,-0.0875 -0.29565,-0.1493 -0.90364,-0.3519l-0.03704,-0.0124c-1.73539,-0.5784 -3.08382,-1.0279 -4.0584,-1.4424c-0.94009,-0.3999 -1.73574,-0.8438 -2.12777,-1.5182c-0.61637,-1.0602 -0.61637,-2.36966 0,-3.42989c0.39203,-0.67434 1.18768,-1.1183 2.12777,-1.51814c0.97459,-0.41452 2.32304,-0.864 4.05847,-1.44247l5.11478,-1.70493c2.1326,-0.71087 3.817,-1.27235 5.1113,-1.5026z" clip-rule="evenodd" fill-rule="evenodd"/>
 </g>
</svg>